<?xml version="1.0" encoding="utf-8"?>
<!-- Generator: Adobe Illustrator 24.2.1, SVG Export Plug-In . SVG Version: 6.00 Build 0)  -->
<svg version="1.1" id="Layer_1" xmlns="http://www.w3.org/2000/svg" xmlns:xlink="http://www.w3.org/1999/xlink" x="0px" y="0px"
	 viewBox="0 0 100 125" style="enable-background:new 0 0 100 125;" xml:space="preserve">
<path d="M54.2,44h-8.1c-1.4,0-2.6-1.1-2.7-2.5c0-0.7,0.2-1.3,0.7-1.8c0.5-0.5,1.1-0.8,1.8-0.8h0.1c1.2,0,2.2-1,2.2-2.2v-0.8
	c0-1.2-1-2.2-2.2-2.2h-1.7c-4,0-7.3,3.3-7.3,7.3v12.3c0,7.2,5.8,13,13,13s13-5.8,13-13V41c0-4-3.3-7.3-7.3-7.3h-1.7
	c-1.2,0-2.2,1-2.2,2.2v0.8c0,1.2,1,2.2,2.2,2.2c1.4,0,2.6,1.1,2.7,2.5c0,0.7-0.2,1.3-0.7,1.8C55.5,43.7,54.9,44,54.2,44z M57.5,41.3
	c-0.1-1.8-1.6-3.3-3.5-3.3c-0.8,0-1.4-0.6-1.4-1.4v-0.8c0-0.8,0.6-1.4,1.4-1.4h1.7c3.6,0,6.5,2.9,6.5,6.5v12.3
	c0,6.7-5.5,12.2-12.2,12.2S37.9,60,37.9,53.3V41c0-3.6,2.9-6.5,6.5-6.5h1.7c0.8,0,1.4,0.6,1.4,1.4v0.8c0,0.8-0.6,1.4-1.4,1.4h-0.1
	c-0.9,0-1.8,0.4-2.4,1c-0.6,0.7-1,1.5-0.9,2.4c0.1,1.8,1.6,3.3,3.5,3.3h8.1c0.9,0,1.8-0.4,2.4-1C57.2,43.1,57.6,42.2,57.5,41.3z"/>
</svg>
