<svg xmlns="http://www.w3.org/2000/svg" xmlns:xlink="http://www.w3.org/1999/xlink" version="1.1" x="0px" y="0px" viewBox="0 0 100 125" style="enable-background:new 0 0 100 100;" xml:space="preserve"><path d="M60.163,35.192H40.242c-3.496,0-6.422-2.704-6.521-6.029c-0.052-1.7,0.571-3.307,1.752-4.524  c1.183-1.218,2.769-1.889,4.466-1.889h0.303c2.999,0,5.438-2.439,5.438-5.438v-1.873c0-2.999-2.439-5.438-5.438-5.438h-4.146  c-9.881,0-17.92,8.039-17.92,17.92v30.205C18.176,75.701,32.475,90,50.051,90s31.875-14.299,31.875-31.875V27.92  c0-9.881-8.039-17.92-17.92-17.92H59.86c-2.999,0-5.438,2.439-5.438,5.438v1.873c0,2.999,2.439,5.438,5.438,5.438  c3.496,0,6.422,2.705,6.521,6.029c0.052,1.699-0.571,3.306-1.752,4.523C63.446,34.521,61.86,35.192,60.163,35.192z M68.381,28.719  c-0.132-4.395-3.954-7.969-8.521-7.969c-1.896,0-3.438-1.542-3.438-3.438v-1.873c0-1.896,1.543-3.438,3.438-3.438h4.146  c8.778,0,15.92,7.142,15.92,15.92v30.205C79.926,74.598,66.523,88,50.051,88S20.176,74.598,20.176,58.125V27.92  c0-8.778,7.142-15.92,15.92-15.92h4.146c1.896,0,3.438,1.542,3.438,3.438v1.873c0,1.896-1.543,3.438-3.438,3.438h-0.303  c-2.243,0-4.339,0.887-5.9,2.497c-1.562,1.609-2.385,3.731-2.317,5.977c0.132,4.394,3.954,7.969,8.521,7.969h19.921  c2.243,0,4.339-0.887,5.9-2.497C67.625,33.086,68.448,30.964,68.381,28.719z"/><text x="0" y="115" fill="#000000" font-size="5px" font-weight="bold" font-family="'Helvetica Neue', Helvetica, Arial-Unicode, Arial, Sans-serif">Created by Made by Made</text><text x="0" y="120" fill="#000000" font-size="5px" font-weight="bold" font-family="'Helvetica Neue', Helvetica, Arial-Unicode, Arial, Sans-serif">from the Noun Project</text></svg>